<?xml version="1.0" encoding="UTF-8" standalone="no"?>
<svg
   xmlns:dc="http://purl.org/dc/elements/1.1/"
   xmlns:cc="http://creativecommons.org/ns#"
   xmlns:rdf="http://www.w3.org/1999/02/22-rdf-syntax-ns#"
   xmlns:svg="http://www.w3.org/2000/svg"
   xmlns="http://www.w3.org/2000/svg"
   xmlns:sodipodi="http://sodipodi.sourceforge.net/DTD/sodipodi-0.dtd"
   xmlns:inkscape="http://www.inkscape.org/namespaces/inkscape"
   width="61.231991mm"
   height="61.231991mm"
   viewBox="0 0 61.231991 61.231991"
   version="1.1"
   id="svg73"
   inkscape:version="1.0.2 (e86c870879, 2021-01-15)"
   sodipodi:docname="facebook.svg">
  <defs
     id="defs67" />
  <sodipodi:namedview
     id="base"
     pagecolor="#ffffff"
     bordercolor="#666666"
     borderopacity="1.0"
     inkscape:pageopacity="0.0"
     inkscape:pageshadow="2"
     inkscape:zoom="0.35"
     inkscape:cx="-7.1431541"
     inkscape:cy="329.99971"
     inkscape:document-units="mm"
     inkscape:current-layer="layer1"
     inkscape:document-rotation="0"
     showgrid="false"
     fit-margin-top="0"
     fit-margin-left="0"
     fit-margin-right="0"
     fit-margin-bottom="0"
     inkscape:window-width="1366"
     inkscape:window-height="704"
     inkscape:window-x="0"
     inkscape:window-y="0"
     inkscape:window-maximized="1" />
  <metadata
     id="metadata70">
    <rdf:RDF>
      <cc:Work
         rdf:about="">
        <dc:format>image/svg+xml</dc:format>
        <dc:type
           rdf:resource="http://purl.org/dc/dcmitype/StillImage" />
        <dc:title />
      </cc:Work>
    </rdf:RDF>
  </metadata>
  <g
     inkscape:label="Calque 1"
     inkscape:groupmode="layer"
     id="layer1"
     transform="translate(-107.72329,-60.854244)">
    <g
       id="g30">
      <path
         id="circle2"
         style="fill:#4d4d4d;fill-opacity:1;stroke-width:0.999999"
         d="M 115.71484 0 A 115.714 115.714 0 0 0 0 115.71484 A 115.714 115.714 0 0 0 115.71484 231.42773 A 115.714 115.714 0 0 0 231.42773 115.71484 A 115.714 115.714 0 0 0 115.71484 0 z M 127.58398 48.121094 C 134.833 48.121094 142.30407 49.173406 149.99609 51.275391 L 149.99609 67.878906 C 143.02309 64.945917 136.76933 63.478516 131.23633 63.478516 C 122.76935 63.478516 118.53516 69.871292 118.53516 82.654297 L 118.53516 90.125 L 141.61133 90.125 L 141.61133 105.48047 L 118.53516 105.48047 L 118.53516 181.26758 L 93.966797 181.26758 L 93.966797 181.26562 L 93.966797 105.48047 L 81.431641 105.48047 L 81.431641 90.123047 L 93.966797 90.123047 L 93.966797 83.566406 C 93.966797 59.937405 105.17199 48.121094 127.58398 48.121094 z "
         transform="matrix(0.26458333,0,0,0.26458333,107.72329,60.854244)" />
    </g>
  </g>
</svg>
