<?xml version="1.0" encoding="UTF-8" standalone="no"?>
<svg
   xmlns:dc="http://purl.org/dc/elements/1.1/"
   xmlns:cc="http://creativecommons.org/ns#"
   xmlns:rdf="http://www.w3.org/1999/02/22-rdf-syntax-ns#"
   xmlns:svg="http://www.w3.org/2000/svg"
   xmlns="http://www.w3.org/2000/svg"
   xmlns:sodipodi="http://sodipodi.sourceforge.net/DTD/sodipodi-0.dtd"
   xmlns:inkscape="http://www.inkscape.org/namespaces/inkscape"
   width="61.231991mm"
   height="61.231991mm"
   viewBox="0 0 61.231991 61.231991"
   version="1.1"
   id="svg73"
   inkscape:version="1.0.2 (e86c870879, 2021-01-15)"
   sodipodi:docname="github.svg">
  <defs
     id="defs67" />
  <sodipodi:namedview
     id="base"
     pagecolor="#ffffff"
     bordercolor="#666666"
     borderopacity="1.0"
     inkscape:pageopacity="0.0"
     inkscape:pageshadow="2"
     inkscape:zoom="0.35"
     inkscape:cx="-7.1431541"
     inkscape:cy="329.99971"
     inkscape:document-units="mm"
     inkscape:current-layer="layer1"
     inkscape:document-rotation="0"
     showgrid="false"
     fit-margin-top="0"
     fit-margin-left="0"
     fit-margin-right="0"
     fit-margin-bottom="0"
     inkscape:window-width="1366"
     inkscape:window-height="704"
     inkscape:window-x="0"
     inkscape:window-y="0"
     inkscape:window-maximized="1" />
  <metadata
     id="metadata70">
    <rdf:RDF>
      <cc:Work
         rdf:about="">
        <dc:format>image/svg+xml</dc:format>
        <dc:type
           rdf:resource="http://purl.org/dc/dcmitype/StillImage" />
        <dc:title />
      </cc:Work>
    </rdf:RDF>
  </metadata>
  <g
     inkscape:label="Calque 1"
     inkscape:groupmode="layer"
     id="layer1"
     transform="translate(-107.72329,-60.854244)">
    <path
       id="circle31"
       style="fill:#4d4d4d;fill-opacity:1;stroke-width:0.999999"
       d="M 115.71484 0 A 115.714 115.714 0 0 0 0 115.71484 A 115.714 115.714 0 0 0 115.71484 231.42773 A 115.714 115.714 0 0 0 231.42773 115.71484 A 115.714 115.714 0 0 0 115.71484 0 z M 155.70703 45.578125 C 156.11923 45.58926 156.53179 45.613984 156.94336 45.654297 C 157.63433 48.404296 158.74489 51.610576 159.46289 54.892578 C 160.31287 58.777577 157.30499 63.827343 159.04297 66.652344 C 159.66799 68.415342 161.04442 69.09464 161.98242 70.431641 C 163.77441 72.986639 165.59053 76.590876 166.60352 79.671875 C 172.0675 96.290877 164.66166 117.50458 155.26367 123.76758 C 150.91869 126.66358 144.96067 128.16344 139.30469 129.64844 C 136.90968 130.27744 132.14125 129.53213 130.90625 131.32812 C 139.19525 134.30613 137.62597 149.83647 137.62695 161.14648 L 137.62695 169.125 C 138.70896 172.452 143.15181 172.76862 143.92578 176.26562 C 143.5058 176.40547 143.086 176.54563 142.66602 176.68555 C 139.05101 179.19855 131.24533 174.41645 130.48633 172.06445 C 128.80032 170.14544 129.22656 166.01725 129.22656 162.40625 C 129.22656 155.47025 129.67089 147.78589 127.54688 143.08789 C 127.12391 143.08889 126.70318 143.08789 126.2832 143.08789 C 126.22727 150.78088 124.85513 166.17629 126.70312 172.48633 C 127.59313 175.5253 130.18836 176.22385 130.48438 180.04688 C 129.95637 180.31976 129.61462 180.50468 129.22461 180.88672 C 113.8916 177.75372 117.23384 159.70911 117.46484 141.82812 L 115.36523 141.82812 C 115.63207 157.34411 119.75865 180.62282 102.76562 180.4668 C 102.50068 179.72979 102.6848 180.057 102.3457 179.625 C 103.13169 176.90699 105.38402 175.84325 106.125 172.90625 C 106.26484 162.82825 106.40692 152.74597 106.54688 142.66797 L 106.125 142.66797 C 103.18702 147.48097 104.10648 156.98189 103.60547 164.08789 C 103.5295 165.16887 104.14256 169.67458 103.18555 171.22656 C 101.72355 175.63557 95.142184 177.91751 89.326172 176.6875 C 89.186329 176.26748 89.046206 175.84775 88.90625 175.42773 C 96.837248 170.37076 95.811961 165.03316 95.626953 152.32812 L 94.787109 152.32812 C 92.991116 153.47616 87.771774 153.15703 85.96875 152.74805 C 83.082778 152.09305 81.167123 152.53136 78.828125 151.48828 C 72.222116 148.54131 71.487286 141.50422 67.488281 135.94922 C 65.505277 133.19522 60.399672 132.0067 59.929688 127.9707 L 60.769531 127.9707 C 68.311541 123.0177 75.776983 138.40128 79.667969 140.98828 C 84.147956 143.96728 91.425873 142.03328 96.046875 140.98828 C 97.445867 136.70728 98.521738 133.51708 101.92773 131.33008 C 101.49872 130.99207 101.81299 131.18117 101.08789 130.91016 C 99.034889 129.67315 95.619409 130.35139 93.107422 129.65039 C 87.653412 128.12939 81.874337 126.22161 77.568359 123.34961 C 63.486369 113.95861 56.805447 82.15303 71.689453 68.332031 C 71.03843 61.816031 67.524497 45.554298 76.728516 45.654297 C 79.52752 46.494297 82.329939 47.333828 85.128906 48.173828 C 88.964938 49.839829 92.10783 53.698612 96.466797 54.474609 C 99.699805 52.231611 117.69954 50.562127 124.18555 51.953125 C 126.14852 52.374127 133.73542 54.205765 135.52344 53.634766 C 136.60143 53.290753 137.93675 51.690283 138.88477 51.113281 C 143.32945 48.409532 149.52406 45.411093 155.70703 45.578125 z "
       transform="matrix(0.26458333,0,0,0.26458333,107.72329,60.854244)" />
  </g>
</svg>
