<?xml version="1.0" encoding="UTF-8" standalone="no"?>
<svg
   xmlns:dc="http://purl.org/dc/elements/1.1/"
   xmlns:cc="http://creativecommons.org/ns#"
   xmlns:rdf="http://www.w3.org/1999/02/22-rdf-syntax-ns#"
   xmlns:svg="http://www.w3.org/2000/svg"
   xmlns="http://www.w3.org/2000/svg"
   xmlns:sodipodi="http://sodipodi.sourceforge.net/DTD/sodipodi-0.dtd"
   xmlns:inkscape="http://www.inkscape.org/namespaces/inkscape"
   width="61.231991mm"
   height="61.231991mm"
   viewBox="0 0 61.231991 61.231991"
   version="1.1"
   id="svg73"
   inkscape:version="1.0.2 (e86c870879, 2021-01-15)"
   sodipodi:docname="twitter.svg">
  <defs
     id="defs67" />
  <sodipodi:namedview
     id="base"
     pagecolor="#ffffff"
     bordercolor="#666666"
     borderopacity="1.0"
     inkscape:pageopacity="0.0"
     inkscape:pageshadow="2"
     inkscape:zoom="0.35"
     inkscape:cx="-7.1431541"
     inkscape:cy="329.99971"
     inkscape:document-units="mm"
     inkscape:current-layer="layer1"
     inkscape:document-rotation="0"
     showgrid="false"
     fit-margin-top="0"
     fit-margin-left="0"
     fit-margin-right="0"
     fit-margin-bottom="0"
     inkscape:window-width="1366"
     inkscape:window-height="704"
     inkscape:window-x="0"
     inkscape:window-y="0"
     inkscape:window-maximized="1" />
  <metadata
     id="metadata70">
    <rdf:RDF>
      <cc:Work
         rdf:about="">
        <dc:format>image/svg+xml</dc:format>
        <dc:type
           rdf:resource="http://purl.org/dc/dcmitype/StillImage" />
        <dc:title />
      </cc:Work>
    </rdf:RDF>
  </metadata>
  <g
     inkscape:label="Calque 1"
     inkscape:groupmode="layer"
     id="layer1"
     transform="translate(-107.72329,-60.854244)">
    <path
       id="circle72"
       style="fill:#4d4d4d;fill-opacity:1;stroke-width:0.999999"
       d="M 115.71484 0 A 115.714 115.714 0 0 0 0 115.71484 A 115.714 115.714 0 0 0 115.71484 231.42773 A 115.714 115.714 0 0 0 231.42773 115.71484 A 115.714 115.714 0 0 0 115.71484 0 z M 65.933594 60.130859 C 66.107452 60.153537 66.280955 60.176983 66.455078 60.201172 C 74.300092 75.41018 96.455992 93.707131 119.95898 97.035156 C 120.12188 94.087125 119.84483 89.929508 120.96875 86.644531 C 124.61274 75.998509 131.72217 69.369173 141.74219 67.076172 C 147.00616 65.871183 155.90314 65.985461 161.32812 69.064453 C 165.49112 71.427452 168.82388 74.486951 171.58789 77.917969 C 175.7549 78.449975 182.47735 76.670333 185.7793 75.445312 C 187.27531 74.893312 188.77348 74.339109 190.26953 73.787109 C 190.24685 73.960968 190.22145 74.136424 190.19727 74.310547 C 186.61722 80.652556 182.24669 84.606702 176.13867 87.595703 C 180.36966 87.460774 184.62107 87.408037 188.41602 86.462891 C 189.704 86.142009 191.09764 85.528823 192.55469 85.423828 C 192.54713 85.467671 192.54272 85.510467 192.53516 85.554688 C 189.49218 89.764703 181.50996 96.434769 176.58398 98.050781 C 175.71099 110.26776 171.21601 120.26358 167.20703 128.89258 C 159.54903 145.37555 143.54353 159.32528 128.10352 165.69727 C 121.79053 168.30227 114.95955 169.70212 107.76953 171.20312 C 91.77355 174.54113 65.828276 167.7495 55.029297 160.1875 C 52.531294 158.43849 44.971434 154.74955 44.105469 152.31055 C 44.75944 152.39974 45.41435 152.48893 46.068359 152.57812 C 46.836359 153.48914 56.148745 154.26885 57.84375 154.17383 C 69.512739 153.51986 78.57783 151.24578 86.882812 146.38477 C 86.890372 146.34092 86.894785 146.29813 86.902344 146.25391 C 75.77035 145.67394 63.440801 132.4195 63.507812 123.22852 C 63.856663 123.27538 64.205724 123.32385 64.554688 123.37109 C 67.398706 124.76608 73.26477 125.30062 76.009766 124.39062 C 73.874748 124.01872 72.206708 122.73852 70.761719 121.8125 C 61.923709 116.15353 55.597898 107.27692 57.544922 93.503906 C 59.982906 94.515913 65.824252 99.288919 69.53125 98.460938 C 69.4001 98.44204 69.269821 98.427101 69.138672 98.408203 C 67.6447 96.651214 66.150222 94.893708 64.65625 93.136719 C 61.299236 87.065701 58.012098 78.161853 61.621094 68.339844 C 62.785075 65.170823 64.873587 62.829858 65.933594 60.130859 z "
       transform="matrix(0.26458333,0,0,0.26458333,107.72329,60.854244)" />
  </g>
</svg>
